<?xml version="1.0" encoding="UTF-8" standalone="no"?>
<!-- Created with Inkscape (http://www.inkscape.org/) -->

<svg
   width="240"
   height="60"
   viewBox="0 0 63.499999 15.875"
   version="1.1"
   id="svg5"
   inkscape:version="1.1.1 (3bf5ae0d25, 2021-09-20)"
   sodipodi:docname="08.svg"
   xmlns:inkscape="http://www.inkscape.org/namespaces/inkscape"
   xmlns:sodipodi="http://sodipodi.sourceforge.net/DTD/sodipodi-0.dtd"
   xmlns="http://www.w3.org/2000/svg"
   xmlns:svg="http://www.w3.org/2000/svg">
  <sodipodi:namedview
     id="namedview7"
     pagecolor="#ffffff"
     bordercolor="#666666"
     borderopacity="1.0"
     inkscape:pageshadow="2"
     inkscape:pageopacity="0.0"
     inkscape:pagecheckerboard="0"
     inkscape:document-units="px"
     showgrid="false"
     units="px"
     inkscape:zoom="4.1240058"
     inkscape:cx="122.575"
     inkscape:cy="29.097922"
     inkscape:window-width="1280"
     inkscape:window-height="738"
     inkscape:window-x="-8"
     inkscape:window-y="-8"
     inkscape:window-maximized="1"
     inkscape:current-layer="layer1" />
  <defs
     id="defs2">
    <rect
       x="0"
       y="-0.24248268"
       width="239.57289"
       height="60.135706"
       id="rect2145" />
  </defs>
  <g
     inkscape:label="Layer 1"
     inkscape:groupmode="layer"
     id="layer1">
    <g
       aria-label="文具ヒサマツ"
       transform="matrix(0.30990827,0,0,0.26458333,-0.08267268,0)"
       id="text2143"
       style="font-size:44.3513px;line-height:1.35;font-family:'Corporate Logo ver2';-inkscape-font-specification:'Corporate Logo ver2';letter-spacing:-3.23395px;white-space:pre;shape-inside:url(#rect2145);fill:#08acfe">
      <path
         d="m 35.614093,20.602924 q -3.76986,10.378204 -10.24515,17.119601 7.096208,5.898723 17.430061,8.249342 -0.709621,0.709621 -1.596647,1.907106 -0.842675,1.197485 -1.37489,2.173213 Q 29.227506,47.258055 21.909542,40.915819 14.902037,46.77019 4.302076,50.140889 3.9916169,49.386917 3.1489422,48.145081 2.3506189,46.947595 1.6853494,46.104921 12.019202,43.266438 18.7606,37.855579 12.551418,31.06983 8.7815573,20.602924 H 2.3506189 V 16.611307 H 20.046787 V 9.3376937 h 4.213374 v 7.2736133 h 17.962276 v 3.991617 z m -22.308703,0 q 3.148942,8.382395 8.825908,14.192415 5.499561,-5.632615 8.648504,-14.192415 z"
         style="font-size:44.3513px;line-height:1.35;font-family:'Corporate Logo ver2';-inkscape-font-specification:'Corporate Logo ver2';letter-spacing:-3.23395px;white-space:pre;shape-inside:url(#rect2145);fill:#08acfe"
         id="path16168" />
      <path
         d="M 50.076226,11.067394 H 76.908762 V 34.085719 H 50.076226 Z m 4.035968,3.193294 v 3.503753 h 18.538844 v -3.503753 z m 0,6.519641 v 3.503753 h 18.538844 v -3.503753 z m 0,6.519641 v 3.548104 H 72.651038 V 27.29997 Z m -10.289501,9.313773 h 39.029143 v 3.858563 H 43.822693 Z m 16.498683,7.229262 q -2.74978,1.685349 -6.608343,3.370698 -3.858563,1.68535 -7.406667,2.794132 -0.532216,-0.709621 -1.37489,-1.640998 -0.842675,-0.931377 -1.507945,-1.507944 3.459402,-1.02008 7.229262,-2.661078 3.814212,-1.640998 5.987426,-3.104591 z m 9.136368,-2.483673 q 3.725509,1.330539 7.539721,2.927186 3.814212,1.596646 6.386587,2.927185 l -4.08032,2.794132 q -2.261916,-1.330539 -5.81002,-2.971537 -3.548104,-1.596647 -7.096208,-2.882834 z"
         style="font-size:44.3513px;line-height:1.35;font-family:'Corporate Logo ver2';-inkscape-font-specification:'Corporate Logo ver2';letter-spacing:-3.23395px;white-space:pre;shape-inside:url(#rect2145);fill:#08acfe"
         id="path16170" />
      <path
         d="m 87.379278,16.167794 h 4.390779 v 5.854371 h 18.982353 v 4.390779 H 91.770057 v 12.817525 q 0.177405,2.661078 1.907106,3.858563 1.7297,1.197486 5.233453,1.197486 6.519644,0 11.841794,-0.842675 v 4.43513 q -6.38658,0.665269 -11.176524,0.665269 l -2.217565,-0.04435 q -4.878643,-0.266108 -7.362316,-2.39497 -2.439321,-2.128863 -2.616727,-6.297885 z"
         style="font-size:44.3513px;line-height:1.35;font-family:'Corporate Logo ver2';-inkscape-font-specification:'Corporate Logo ver2';letter-spacing:-3.23395px;white-space:pre;shape-inside:url(#rect2145);fill:#08acfe"
         id="path16172" />
      <path
         d="m 123.13006,26.146836 v 9.934691 h -4.21338 v -9.934691 h -4.52383 v -4.43513 h 4.52383 v -6.209182 h 4.21338 v 6.209182 h 10.95477 v -6.386587 h 4.30207 v 6.386587 h 4.65689 v 4.43513 h -4.65689 v 7.584072 q -0.22175,7.85018 -6.29788,11.753095 -2.48367,1.596646 -5.0117,2.483672 -2.52802,0.931378 -5.32215,1.507945 v -4.612536 q 4.52383,-0.70962 7.49536,-2.661078 2.08452,-1.37489 3.41505,-3.503752 1.3749,-2.128863 1.41925,-4.967346 v -7.584072 z"
         style="font-size:44.3513px;line-height:1.35;font-family:'Corporate Logo ver2';-inkscape-font-specification:'Corporate Logo ver2';letter-spacing:-3.23395px;white-space:pre;shape-inside:url(#rect2145);fill:#08acfe"
         id="path16174" />
      <path
         d="M 146.46252,21.356896 V 17.010468 H 173.162 v 4.612536 q -0.84267,5.721317 -2.88283,9.446826 -1.90711,3.592456 -4.21338,5.987426 -2.30626,2.350619 -5.72131,4.745589 l 4.16902,6.697046 h -5.1891 L 148.14787,30.227156 h 5.14475 l 4.78994,7.805828 q 2.74978,-1.596646 4.70124,-3.814211 5.1004,-5.632615 5.89872,-12.861877 z"
         style="font-size:44.3513px;line-height:1.35;font-family:'Corporate Logo ver2';-inkscape-font-specification:'Corporate Logo ver2';letter-spacing:-3.23395px;white-space:pre;shape-inside:url(#rect2145);fill:#08acfe"
         id="path16176" />
      <path
         d="m 183.94299,31.690749 h -3.94726 l -2.57238,-15.34555 h 3.76986 z m 8.69286,0 h -3.94727 l -2.57237,-15.34555 h 3.76986 z M 180.8384,44.197815 q 4.56819,-0.842675 8.3824,-3.947266 3.85856,-3.148942 6.03178,-7.717126 1.86275,-3.947265 2.83848,-7.761477 1.02008,-3.858563 1.55229,-8.338044 h 4.34643 q -0.31046,3.725509 -1.06443,7.18491 -0.75397,3.459401 -2.17321,7.229262 -1.4636,4.035968 -4.39078,7.938882 -3.01589,3.991617 -7.09621,6.563993 -4.03597,2.572375 -8.42675,3.281996 z"
         style="font-size:44.3513px;line-height:1.35;font-family:'Corporate Logo ver2';-inkscape-font-specification:'Corporate Logo ver2';letter-spacing:-3.23395px;white-space:pre;shape-inside:url(#rect2145);fill:#08acfe"
         id="path16178" />
    </g>
    <path
       style="fill:none;stroke:#000000;stroke-width:0.264583px;stroke-linecap:butt;stroke-linejoin:miter;stroke-opacity:1"
       d="m 0.25662751,15.590121 h 0.0641569"
       id="path15884" />
    <rect
       style="fill:#08acfe;fill-opacity:1;stroke-width:0.241284"
       id="rect15974"
       width="63.686337"
       height="1.8605707"
       x="0.021444669"
       y="13.72955"
       ry="0" />
  </g>
</svg>
